<svg xmlns="http://www.w3.org/2000/svg" viewBox="0 0 400 100"><path d="M93.2 36.9V24.25h-13v-3.32a3.86 3.86 0 0 1 3.85-3.85h16.33V33a3.91 3.91 0 0 1-3.91 3.91H93.2z" fill="#f9ca06"/><path d="M20.13 42.9l4.97 14.75 1.53 5.37h.17l1.47-5.43 4.3-14.7h7.46l-6.9 18.77c-3.8 10.3-6.33 14.87-9.6 17.7-2.7 2.43-5.54 3.34-7.3 3.56l-1.58-5.88c1.2-.28 2.66-.9 4.07-1.92 1.3-.85 2.83-2.5 3.8-4.35.28-.5.45-.9.45-1.24 0-.28-.06-.68-.4-1.36L12.5 42.9h7.63zm25.83 15.7c.17 4.97 4.07 7.12 8.48 7.12 3.22 0 5.54-.45 7.63-1.24l1.02 4.8c-2.37.96-5.65 1.75-9.6 1.75-8.93 0-14.2-5.54-14.2-13.96 0-7.63 4.63-14.8 13.45-14.8 9 0 11.87 7.35 11.87 13.4 0 1.3-.1 2.32-.23 2.94H45.96zm12.1-4.86C58.12 51.2 57 47 52.36 47c-4.3 0-6.1 3.9-6.4 6.73h12.1zm9.9-23.44h7v40.13h-7zm12.25 0h7v40.13h-7zm38.44 26.1c0 10.12-7.12 14.64-14.13 14.64-7.8 0-13.8-5.37-13.8-14.2 0-9.04 5.93-14.58 14.24-14.58 8.2 0 13.68 5.76 13.68 14.13m-20.74.28c0 5.3 2.6 9.33 6.84 9.33 3.96 0 6.73-3.9 6.73-9.44 0-4.3-1.92-9.2-6.67-9.2-4.92-.01-6.9 4.74-6.9 9.32m27.93-13.78l2.88 12.5 1.75 8.93h.1c.56-3 1.47-6.05 2.26-8.87l3.56-12.55h5.65l3.45 12.2 2.2 9.2h.1l1.8-9.2 3.05-12.2h6.84l-8.65 27.53h-6.44l-3.28-11.2c-.85-2.88-1.47-5.48-2.1-8.82h-.1c-.56 3.4-1.3 6.1-2.1 8.82l-3.5 11.2h-6.5l-8.1-27.54h7.12zm36.74 6.9l-.23-6.5h2.54l.17 4.75h.1c1.75-3.1 4.35-5.37 8.82-5.37 3.73 0 6.6 2.5 7.8 5.88h.1c.73-1.58 1.75-2.83 2.77-3.67 1.75-1.4 3.56-2.2 6.44-2.2 2.66 0 8.87 1.47 8.87 11.76v16h-2.7v-15.8c0-6.1-2.37-9.72-7.06-9.72-3.4 0-6.05 2.54-7.12 5.37-.23.8-.45 1.7-.45 2.7v17.4h-2.7v-17c0-4.86-2.32-8.48-6.73-8.48-3.62 0-6.5 2.94-7.52 6.1-.23.8-.4 1.7-.4 2.66V70.4h-2.7V49.8zm44.42 6.78c0 8.65 4.75 12.1 10.34 12.1 3.95 0 6-.8 7.52-1.53l.68 2.1c-1.02.57-3.8 1.75-8.54 1.75-7.8 0-12.66-5.65-12.66-13.62 0-9.04 5.2-14.7 12.2-14.7 8.87 0 10.57 8.36 10.57 12.27 0 .73 0 1.13-.1 1.64h-20zm17.3-2.15c.06-3.8-1.53-9.5-8.08-9.5-6 0-8.53 5.3-9.04 9.5h17.12zm6.32 12.43c1.47.9 3.67 1.87 6.1 1.87 4.3 0 6.33-2.32 6.33-5.14 0-3-1.8-4.58-5.7-6.16-4.46-1.7-6.9-4.13-6.9-7.4 0-3.96 3.1-7.35 8.37-7.35 2.5 0 4.63.73 6 1.7l-1.02 2.2c-.96-.68-2.7-1.64-5.43-1.64-3.45 0-5.26 2.2-5.26 4.7 0 2.83 1.92 4 5.6 5.54 4.4 1.75 7 3.96 7 8.08 0 4.63-3.62 7.74-9.16 7.74-2.6 0-5.1-.73-6.9-1.86l.98-2.26zm18.83 0c1.47.9 3.67 1.87 6.1 1.87 4.3 0 6.33-2.32 6.33-5.14 0-3-1.8-4.58-5.7-6.16-4.47-1.7-6.9-4.13-6.9-7.4 0-3.96 3.1-7.35 8.37-7.35 2.5 0 4.63.73 6 1.7l-1.02 2.2c-.96-.68-2.7-1.64-5.43-1.64-3.45 0-5.26 2.2-5.26 4.7 0 2.83 1.92 4 5.6 5.54 4.4 1.75 7 3.96 7 8.08 0 4.63-3.62 7.74-9.16 7.74-2.6 0-5.1-.73-6.9-1.86l.98-2.26zm20.34-10.28c0 8.65 4.75 12.1 10.34 12.1 3.96 0 6-.8 7.52-1.53l.68 2.1c-1.02.57-3.8 1.75-8.54 1.75-7.8 0-12.66-5.65-12.66-13.62 0-9.04 5.2-14.7 12.2-14.7 8.87 0 10.57 8.36 10.57 12.27 0 .73 0 1.13-.1 1.64h-20zm17.3-2.15c.06-3.8-1.53-9.5-8.08-9.5-6 0-8.54 5.3-9.04 9.5h17.12zm7.46-4.63l-.23-6.5h2.54l.17 4.86h.1c1.47-3.05 4.92-5.48 9.33-5.48 2.6 0 9.5 1.3 9.5 11.47v16.28h-2.7V54.37c0-4.97-1.92-9.44-7.52-9.44-3.8 0-7.06 2.7-8.14 6.27-.17.62-.34 1.53-.34 2.37V70.4h-2.7V49.8zm49.67 16.67c0 6.95-1.47 10.4-3.73 12.55-2.5 2.37-6.16 3.22-9.2 3.22-3.1 0-6.56-.8-8.65-2.37l.96-2.15c1.92 1.24 4.58 2.26 8.08 2.26 5.7 0 9.83-2.94 9.83-10.96v-3.84h-.1c-1.4 2.77-4.58 5.26-9.44 5.26-6.84 0-11.64-5.94-11.64-13.34 0-9.44 6.22-14.4 12.2-14.4 5.37 0 8.03 2.94 9.16 5.2h.1l.17-4.58h2.5c-.17 2.03-.23 4.18-.23 7v16.15zm-2.72-12.72c0-1.02-.06-1.87-.34-2.66-1.13-3.22-3.96-6.16-8.42-6.16-5.77 0-9.72 4.7-9.72 11.87 0 6.1 3.22 11.36 9.6 11.36 3.62 0 7-2.26 8.42-6.1a9.96 9.96 0 0 0 .45-2.88v-5.43zm9.96 2.83c0 8.65 4.75 12.1 10.34 12.1 3.96 0 6-.8 7.52-1.53l.68 2.1c-1.02.57-3.8 1.75-8.54 1.75-7.8 0-12.66-5.65-12.66-13.62 0-9.04 5.2-14.7 12.2-14.7 8.88 0 10.57 8.36 10.57 12.27 0 .73 0 1.13-.1 1.64h-20zm17.3-2.15c.06-3.8-1.53-9.5-8.08-9.5-6 0-8.53 5.3-9.04 9.5h17.12zm7.4-3l-.23-8.14h2.5l.1 5.48h.17c1.2-3.45 4-6.1 7.7-6.1.4 0 .8.06 1.13.1v2.54c-.4-.06-.8-.06-1.3-.06-3.73 0-6.4 3.22-7.12 7.57-.17.8-.23 1.7-.23 2.6V70.4h-2.7V51.43z" fill="#181818"/></svg>