<svg xmlns="http://www.w3.org/2000/svg" xmlns:xlink="http://www.w3.org/1999/xlink" version="1.1" x="0px" y="0px" viewBox="0 0 512 640" enable-background="new 0 0 512 512" xml:space="preserve">
  <g>
    <path d="M392.3,113.7l25-25c5.5-5.5,5.5-14.4,0-20c-5.5-5.5-14.4-5.5-20,0l-25,25c-5.5,5.5-5.5,14.4,0,20   C377.8,119.2,386.8,119.2,392.3,113.7z" style="fill: #fc4f02"/>
    <path d="M392.3,346.4c-5.5-5.5-14.4-5.5-20,0c-5.5,5.5-5.5,14.4,0,20l25,25c5.5,5.5,14.4,5.5,20,0c5.5-5.5,5.5-14.4,0-20   L392.3,346.4z" style="fill: #fc4f02"/>
    <path d="M119.7,113.7c5.5,5.5,14.4,5.5,20,0c5.5-5.5,5.5-14.4,0-20l-25-25c-5.5-5.5-14.4-5.5-20,0s-5.5,14.4,0,20L119.7,113.7z" style="fill: #fc4f02"/>
    <path d="M388.1,210.6c-8-67.9-68.4-114.1-132.1-114.1c-73.6,0-133.5,59.9-133.5,133.6c0,42.2,19.3,81,53,106.5   c15.3,11.6,24,28.7,24,47.1v19.4c-0.5,8,8.2,16,17.2,13.8l84.8-19.4c6.4-1.5,11-7.2,11-13.8c0-18.3,9-35.6,24.6-47.6   C376,306.4,395,259.5,388.1,210.6z M319.9,313.7c-19.4,14.9-31.8,35.8-34.9,58.6l-57.4,11.4c0-27.3-12.8-52.7-35.2-69.6   c-26.5-20.1-41.8-50.7-41.8-84c0-58.1,47.2-105.3,105.3-105.3c50,1.9,94.1,35.6,104.2,89.8C365.7,253.2,350.6,290.3,319.9,313.7z" style="fill: #fc4f02"/>
    <path d="M216.7,463.2l84.9-19.4c7.6-1.7,12.4-9.3,10.6-16.9c-1.7-7.6-9.3-12.3-16.9-10.6l-84.9,19.4c-7.6,1.7-12.4,9.3-10.6,16.9   C201.2,460,209.6,465.3,216.7,463.2z" style="fill: #fc4f02"/>
    <path d="M295.3,462.8l-84.9,19.4c-7.6,1.7-12.4,9.3-10.6,16.9c2.1,8.3,10,12.2,16.9,10.6l84.9-19.4c7.6-1.7,12.4-9.3,10.6-16.9   C310.5,465.8,302.9,461,295.3,462.8z" style="fill: #fc4f02"/>
    <path d="M256,65.6c7.8,0,14.1-6.3,14.1-14.1V16.1C270.1,8.3,263.8,2,256,2c-7.8,0-14.1,6.3-14.1,14.1v35.3   C241.9,59.2,248.2,65.6,256,65.6z" style="fill: #fc4f02"/>
    <path d="M469.9,215.9h-35.3c-7.8,0-14.1,6.3-14.1,14.1c0,7.8,6.3,14.1,14.1,14.1h35.3c7.8,0,14.1-6.3,14.1-14.1   C484.1,222.3,477.7,215.9,469.9,215.9z" style="fill: #fc4f02"/>
    <path d="M77.4,215.9H42.1c-7.8,0-14.1,6.3-14.1,14.1c0,7.8,6.3,14.1,14.1,14.1h35.3c7.8,0,14.1-6.3,14.1-14.1   C91.5,222.3,85.2,215.9,77.4,215.9z" style="fill: #fc4f02"/>
    <path d="M119.7,346.4l-25,25c-5.5,5.5-5.5,14.4,0,20c5.5,5.5,14.4,5.5,20,0l25-25c5.5-5.5,5.5-14.4,0-20   C134.2,340.9,125.2,340.9,119.7,346.4z" style="fill: #fc4f02"/>
  </g>
  <!-- <text x="0" y="527" fill="#000000" font-size="5px" font-weight="bold" font-family="'Helvetica Neue', Helvetica, Arial-Unicode, Arial, Sans-serif">Created by Icon Fair</text><text x="0" y="532" fill="#000000" font-size="5px" font-weight="bold" font-family="'Helvetica Neue', Helvetica, Arial-Unicode, Arial, Sans-serif">from the Noun Project</text> -->
</svg>