<svg xmlns:dc="http://purl.org/dc/elements/1.1/" xmlns:cc="http://creativecommons.org/ns#" xmlns:rdf="http://www.w3.org/1999/02/22-rdf-syntax-ns#" xmlns:svg="http://www.w3.org/2000/svg" xmlns="http://www.w3.org/2000/svg" xmlns:sodipodi="http://sodipodi.sourceforge.net/DTD/sodipodi-0.dtd" xmlns:inkscape="http://www.inkscape.org/namespaces/inkscape" version="1.1" x="0px" y="0px" viewBox="0 0 100 125">
  <g transform="translate(0,-952.36218)">
    <path style="text-indent:0;text-transform:none;direction:ltr;block-progression:tb;baseline-shift:baseline;color:#000000;enable-background:accumulate;" d="m 24.685132,959.36218 c -1.463665,0.15343 -2.695048,1.52816 -2.687177,3 l 0,4 -5.999279,0 c -6.2635742,0 -10.9986773,5.24359 -10.9986773,11 l 0,18 c 0,2.09951 -0.2334692,4.71432 1.4685734,7.25002 1.6488735,2.4565 4.8252159,3.6764 9.1239029,3.75 l -0.906141,1.0625 c -1.00617,1.2108 -0.820097,3.2281 0.390579,4.2344 1.210676,1.0062 3.227695,0.8202 4.233865,-0.3907 l 4.999399,-6 c 0.890655,-1.0678 0.890655,-2.7759 0,-3.8437 l -4.999399,-6.00002 c -0.628541,-0.77578 -1.663434,-1.20197 -2.655931,-1.09375 -1.082487,0.11201 -2.07479,0.86214 -2.477859,1.87313 -0.403067,1.01099 -0.199091,2.23817 0.509346,3.06437 l 0.906141,1.09377 c -3.208762,-0.054 -3.865848,-0.70842 -4.124504,-1.09377 -0.269895,-0.40209 -0.468694,-1.75705 -0.468694,-3.90625 l 0,-18 c 0,-2.15581 2.374705,-5 4.999399,-5 l 5.999279,0 0,4 c 1.57e-4,1.57075 1.429075,2.99984 2.999639,3 l 21.997355,0 c 1.570564,-1.6e-4 2.999483,-1.42925 2.99964,-3 l 0,-4 17.997836,0 c 1.584747,0.0224 3.04236,-1.4149 3.04236,-3 0,-1.5851 -1.457613,-3.02241 -3.04236,-3 l -17.997836,0 0,-4 c -1.57e-4,-1.57075 -1.429076,-2.99984 -2.99964,-3 -7.425709,-10e-6 -14.907915,0 -22.309817,0 z m 59.305369,0 c -6.038862,0 -10.998678,4.96039 -10.998678,11 0,6.03961 4.959816,11 10.998678,11 6.038862,0 10.998677,-4.96039 10.998677,-11 0,-6.03961 -4.959815,-11 -10.998677,-11 z m -55.993267,6 15.998076,0 0,8 -15.998076,0 z m 55.993267,0 c 2.79663,0 4.999399,2.20301 4.999399,5 0,2.79699 -2.202769,5 -4.999399,5 -2.796632,0 -4.999399,-2.20301 -4.999399,-5 0,-2.79699 2.202767,-5 4.999399,-5 z m -44.99459,27 c -6.038862,0 -10.998677,4.96038 -10.998677,11.00002 0,6.0396 4.959815,11 10.998677,11 6.038862,0 10.998678,-4.9604 10.998678,-11 0,-6.03964 -4.959816,-11.00002 -10.998678,-11.00002 z m 44.99459,0 c -4.995059,0 -9.23891,3.40883 -10.56123,8.00002 -6.237545,0 -12.534329,0 -18.747746,0 -1.570795,0.082 -2.925739,1.5853 -2.843928,3.1563 0.08181,1.5709 1.585623,2.9258 3.15639,2.8437 l 18.435284,0 c 1.312843,4.6057 5.555797,8 10.56123,8 6.038862,0 10.998677,-4.9604 10.998677,-11 0,-6.03965 -4.959815,-11.00002 -10.998677,-11.00002 z m -44.99459,6 c 2.796632,0 4.999399,2.20302 4.999399,5.00002 0,2.797 -2.202767,5 -4.999399,5 -2.79663,0 -4.999399,-2.203 -4.999399,-5 0,-2.797 2.202769,-5.00002 4.999399,-5.00002 z m 44.99459,0 c 2.79663,0 4.999399,2.20302 4.999399,5.00002 0,2.797 -2.202769,5 -4.999399,5 -2.796632,0 -4.999399,-2.203 -4.999399,-5 0,-2.797 2.202767,-5.00002 4.999399,-5.00002 z m -0.03125,17.93752 c -1.581167,0.016 -3.001258,1.4814 -2.968393,3.0625 l 0,7 c 0,2.2235 -0.152007,3.6247 -0.374955,3.9687 -0.222949,0.3439 -0.874294,1.0313 -4.624444,1.0313 l -11.592356,0 0.906141,-1.0938 c 0.788991,-0.9127 0.94402,-2.3211 0.372466,-3.3836 -0.571554,-1.0626 -1.832048,-1.7093 -3.028397,-1.5539 -0.763724,0.094 -1.485299,0.4949 -1.968513,1.0938 l -4.999399,6 c -0.890655,1.0678 -0.890655,2.7759 0,3.8437 l 4.999399,6 c 1.00617,1.2109 3.023188,1.3969 4.233865,0.3907 1.210676,-1.0063 1.396749,-3.0236 0.390579,-4.2344 l -0.906141,-1.0625 11.592356,0 c 4.640649,0 7.976218,-1.1911 9.655089,-3.7813 1.678871,-2.5903 1.343588,-5.1791 1.343588,-7.2187 l 0,-7 c 0.03331,-1.6019 -1.42889,-3.0794 -3.030885,-3.0625 z m -56.274484,7.0625 c -1.463665,0.1534 -2.695048,1.5281 -2.687177,3 l 0,14 c 1.57e-4,1.5707 1.429075,2.9998 2.99964,3 l 21.997355,0 c 1.570564,-2e-4 2.999482,-1.4293 2.999639,-3 l 0,-14 c -1.57e-4,-1.5708 -1.429075,-2.9999 -2.999639,-3 -7.42571,0 -14.907916,0 -22.309818,0 z m 3.312102,6 15.998076,0 0,8 -15.998076,0 z" fill="#fc4f02" fill-opacity="1" stroke="none" marker="none" visibility="visible" display="inline" overflow="visible"/>
  </g>
</svg>