<svg xmlns="http://www.w3.org/2000/svg" xmlns:xlink="http://www.w3.org/1999/xlink" version="1.1" x="0px" y="0px" viewBox="0 0 52 65" style="enable-background:new 0 0 52 52;" xml:space="preserve">
	<style type="text/css">
		.st0{fill:none;stroke:#000000;stroke-width:2;stroke-linecap:round;stroke-miterlimit:10;}
		.st1{fill:none;stroke:#000000;stroke-width:2;stroke-miterlimit:10;}
		.st2{fill:none;stroke:#000000;stroke-width:2;stroke-linejoin:round;stroke-miterlimit:10;}
	</style>
	<g>
		<g>
			<path d="M30,16.9916992h-1v-1c0-6.0654297,4.9345703-11,11-11h1v1C41,12.0571289,36.0654297,16.9916992,30,16.9916992z     M38.9375,7.0541992c-4.1152344,0.4858398-7.3896484,3.7592773-7.875,7.875    C35.1777344,14.4433594,38.4521484,11.1699219,38.9375,7.0541992z" style="fill: #fc4f02"/>
		</g>
		<g>
			<path d="M23,13.9916992h-1c-6.0654297,0-11-4.9345703-11-11v-1h1c6.0654297,0,11,4.9345703,11,11V13.9916992z M13.0625,4.0541992    c0.4853516,4.1157227,3.7597656,7.3891602,7.875,7.875C20.4521484,7.8134766,17.1777344,4.5400391,13.0625,4.0541992z" style="fill: #fc4f02"/>
		</g>
		<g>
			<path d="M26,50.0083008c-3.3085938,0-6-2.6914063-6-6V24.1708984h12v19.8374023    C32,47.3168945,29.3085938,50.0083008,26,50.0083008z M22,26.1708984v17.8374023c0,2.2055664,1.7939453,4,4,4s4-1.7944336,4-4    V26.1708984H22z" style="fill: #fc4f02"/>
		</g>
		<g>
			<path d="M32.0009766,25.9833984H20c-1.6542969,0-3-1.3457031-3-3s1.3457031-3,3-3h12.0009766c1.6542969,0,3,1.3457031,3,3    S33.6552734,25.9833984,32.0009766,25.9833984z M20,21.9833984c-0.5517578,0-1,0.4487305-1,1s0.4482422,1,1,1h12.0009766    c0.5517578,0,1-0.4487305,1-1s-0.4482422-1-1-1H20z" style="fill: #fc4f02"/>
		</g>
		<g>
			<path d="M26.9628906,21.4736328c-0.109375,0-0.2216797-0.0185547-0.3310547-0.0566406    c-0.5205078-0.1831055-0.7949219-0.753418-0.6123047-1.2749023c1.4882813-4.2451172,7.1601563-8.3129883,7.4013672-8.4838867    c0.4501953-0.3188477,1.0751953-0.2133789,1.3935547,0.2353516c0.3203125,0.4501953,0.2148438,1.0742188-0.234375,1.3945313    c-0.0546875,0.0380859-5.3955078,3.8720703-6.6738281,7.5161133    C27.7626953,21.2158203,27.3759766,21.4736328,26.9628906,21.4736328z" style="fill: #fc4f02"/>
		</g>
		<g>
			<path d="M25,21.4916992c-0.4667969,0-0.8847656-0.3286133-0.9794922-0.8037109    c-1.8183594-9.0922852-6.1728516-10.2070313-6.2167969-10.2158203c-0.5410156-0.1083984-0.8925781-0.6347656-0.7841797-1.1767578    s0.6347656-0.8935547,1.1767578-0.7841797C18.4267578,8.5571289,23.875,9.7626953,25.9814453,20.2954102    c0.1083984,0.5415039-0.2431641,1.0683594-0.7841797,1.1767578C25.1308594,21.4853516,25.0644531,21.4916992,25,21.4916992z" style="fill: #fc4f02"/>
		</g>
		<g>
			<path d="M24.0048828,31.9916992h-2.3388672c-0.5527344,0-1-0.4477539-1-1s0.4472656-1,1-1h2.3388672c0.5527344,0,1,0.4477539,1,1    S24.5576172,31.9916992,24.0048828,31.9916992z" style="fill: #fc4f02"/>
		</g>
		<g>
			<path d="M24.0048828,35.9916992h-2.3388672c-0.5527344,0-1-0.4477539-1-1s0.4472656-1,1-1h2.3388672c0.5527344,0,1,0.4477539,1,1    S24.5576172,35.9916992,24.0048828,35.9916992z" style="fill: #fc4f02"/>
		</g>
		<g>
			<path d="M24.0048828,39.9916992h-2.3388672c-0.5527344,0-1-0.4477539-1-1s0.4472656-1,1-1h2.3388672c0.5527344,0,1,0.4477539,1,1    S24.5576172,39.9916992,24.0048828,39.9916992z" style="fill: #fc4f02"/>
		</g>
	</g>
	<!-- <text x="0" y="67" fill="#000000" font-size="5px" font-weight="bold" font-family="'Helvetica Neue', Helvetica, Arial-Unicode, Arial, Sans-serif">Created by Graphic Tigers
	</text><text x="0" y="72" fill="#000000" font-size="5px" font-weight="bold" font-family="'Helvetica Neue', Helvetica, Arial-Unicode, Arial, Sans-serif">from the Noun Project
	</text> -->
</svg>